<?xml version="1.0"?>
<svg xmlns="http://www.w3.org/2000/svg" viewBox="0 0 50 50">
    <path style="text-indent:0;text-align:start;line-height:normal;text-transform:none;block-progression:tb;-inkscape-font-specification:Sans" d="M 25 2 C 12.309296 2 2 12.309296 2 25 C 2 34.864803 8.2339109 43.267926 16.96875 46.53125 C 17.012854 46.547727 17.049519 46.577536 17.09375 46.59375 C 17.798092 46.851935 18.51544 47.091994 19.25 47.28125 C 19.259758 47.28383 19.271476 47.27868 19.28125 47.28125 C 19.63899 47.372917 20.010794 47.456609 20.375 47.53125 C 20.439144 47.544598 20.497727 47.549627 20.5625 47.5625 C 20.976803 47.643823 21.390589 47.722543 21.8125 47.78125 C 22.026435 47.811385 22.24882 47.819305 22.46875 47.84375 C 22.531637 47.850673 22.593212 47.868587 22.65625 47.875 C 22.917348 47.901802 23.168175 47.919374 23.4375 47.9375 C 23.95401 47.972255 24.47477 48 25 48 C 25.396584 48 25.795809 47.988643 26.1875 47.96875 C 26.649976 47.945062 27.092358 47.892533 27.53125 47.84375 C 27.749685 47.819705 27.97094 47.811384 28.1875 47.78125 C 28.609411 47.722543 29.023197 47.643823 29.4375 47.5625 C 29.89555 47.471468 30.323673 47.393978 30.75 47.28125 C 31.48456 47.091994 32.201908 46.851935 32.90625 46.59375 C 32.949247 46.57737 32.988706 46.547772 33.03125 46.53125 C 41.766089 43.267926 48 34.864803 48 25 C 48 12.309296 37.690704 2 25 2 z M 25 4 C 36.609824 4 46 13.390176 46 25 C 46 31.442647 43.120502 37.212295 38.5625 41.0625 C 38.237812 40.293757 37.691103 39.243277 36.8125 38.1875 C 34.0135 39.6855 30.128 41 25 41 C 19.872 41 15.9865 39.6855 13.1875 38.1875 C 12.308897 39.243277 11.762188 40.293757 11.4375 41.0625 C 6.8794979 37.212295 4 31.442647 4 25 C 4 13.390176 13.390176 4 25 4 z M 15.09375 10.6875 L 14.40625 11.1875 C 12.70425 12.4725 10.057 16.11625 11.875 20.90625 C 11.109 22.25425 9.041 26.4075 9 31.9375 L 9 32.28125 L 9.1875 32.5625 C 9.3835 32.8255 14.129 39 25 39 C 35.871 39 40.6155 32.8255 40.8125 32.5625 L 41 32.28125 L 41 31.9375 C 40.96 26.4075 38.893 22.25425 38.125 20.90625 C 39.943 16.11625 37.29575 12.4725 35.59375 11.1875 L 34.90625 10.6875 L 30.75 14.84375 C 29.777 14.52275 27.773 14 25 14 C 22.226 14 20.223 14.52275 19.25 14.84375 L 15.09375 10.6875 z M 20 23 C 21.657 23 23 24.343 23 26 C 23 27.657 21.657 29 20 29 C 18.343 29 17 27.657 17 26 C 17 24.343 18.343 23 20 23 z M 30 23 C 31.657 23 33 24.343 33 26 C 33 27.657 31.657 29 30 29 C 28.343 29 27 27.657 27 26 C 27 24.343 28.343 23 30 23 z M 22.5 31 L 27.5 31 L 25 33.5 L 22.5 31 z" overflow="visible" font-family="Sans"/>
</svg>
